<svg xmlns="http://www.w3.org/2000/svg" xmlns:lucid="lucid" width="480.81" height="498.81"><g transform="translate(-19.59669018181253 -11.59669018181253)" lucid:page-tab-id="Qilmoq9iQ3D2"><path d="M42.5 345.33c-1.38-2.4-1.38-6.27 0-8.66l35-60.34c1.38-2.4 4.74-4.33 7.5-4.33h70c2.76 0 6.12 1.94 7.5 4.33l35 60.34c1.38 2.4 1.38 6.27 0 8.66l-35 60.34c-1.38 2.4-4.74 4.33-7.5 4.33H85c-2.76 0-6.12-1.94-7.5-4.33zM182.5 265.33c-1.38-2.4-1.38-6.27 0-8.66l35-60.34c1.38-2.4 4.74-4.33 7.5-4.33h70c2.76 0 6.12 1.94 7.5 4.33l35 60.34c1.38 2.4 1.38 6.27 0 8.66l-35 60.34c-1.38 2.4-4.74 4.33-7.5 4.33h-70c-2.76 0-6.12-1.94-7.5-4.33zM182.5 425.33c-1.38-2.4-1.38-6.27 0-8.66l35-60.34c1.38-2.4 4.74-4.33 7.5-4.33h70c2.76 0 6.12 1.94 7.5 4.33l35 60.34c1.38 2.4 1.38 6.27 0 8.66l-35 60.34c-1.38 2.4-4.74 4.33-7.5 4.33h-70c-2.76 0-6.12-1.94-7.5-4.33zM42.5 185.33c-1.38-2.4-1.38-6.27 0-8.66l35-60.34c1.38-2.4 4.74-4.33 7.5-4.33h70c2.76 0 6.12 1.94 7.5 4.33l35 60.34c1.38 2.4 1.38 6.27 0 8.66l-35 60.34c-1.38 2.4-4.74 4.33-7.5 4.33H85c-2.76 0-6.12-1.94-7.5-4.33zM182.5 105.33c-1.38-2.4-1.38-6.27 0-8.66l35-60.34c1.38-2.4 4.74-4.33 7.5-4.33h70c2.76 0 6.12 1.94 7.5 4.33l35 60.34c1.38 2.4 1.38 6.27 0 8.66l-35 60.34c-1.38 2.4-4.74 4.33-7.5 4.33h-70c-2.76 0-6.12-1.94-7.5-4.33z" stroke="#000" stroke-width="2" fill="#fff" filter="url(#a)"/><path d="M322.5 185.33c-1.38-2.4-1.38-6.27 0-8.66l35-60.34c1.38-2.4 4.74-4.33 7.5-4.33h70c2.76 0 6.12 1.94 7.5 4.33l35 60.34c1.38 2.4 1.38 6.27 0 8.66l-35 60.34c-1.38 2.4-4.74 4.33-7.5 4.33h-70c-2.76 0-6.12-1.94-7.5-4.33z" stroke="#000" stroke-width="2" fill="#e5e5e5" filter="url(#a)"/><path d="M322.5 345.33c-1.38-2.4-1.38-6.27 0-8.66l35-60.34c1.38-2.4 4.74-4.33 7.5-4.33h70c2.76 0 6.12 1.94 7.5 4.33l35 60.34c1.38 2.4 1.38 6.27 0 8.66l-35 60.34c-1.38 2.4-4.74 4.33-7.5 4.33h-70c-2.76 0-6.12-1.94-7.5-4.33z" stroke="#000" stroke-width="2" fill="#fff" filter="url(#a)"/><defs><filter id="a" filterUnits="objectBoundingBox" x="-.03" y="-.05" width="1.13" height="1.14"><feOffset result="offOut" in="SourceAlpha" dx="5.4" dy="2.61"/><feGaussianBlur result="blurOut" in="offOut" stdDeviation="5"/><feColorMatrix result="colorOut" in="blurOut" values="0 0 0 0 0 0 0 0 0 0 0 0 0 0 0 0 0 0 0.5019607843137255 0"/><feBlend in="SourceGraphic" in2="colorOut"/></filter></defs></g></svg>