<svg xmlns="http://www.w3.org/2000/svg" xmlns:lucid="lucid" width="200.24" height="178.24"><g transform="translate(-79.88030899808825 -101.88030899808825)" lucid:page-tab-id="0_0"><path d="M102.5 195.33c-1.38-2.4-1.38-6.27 0-8.66l35-60.34c1.38-2.4 4.74-4.33 7.5-4.33h70c2.76 0 6.12 1.94 7.5 4.33l35 60.34c1.38 2.4 1.38 6.27 0 8.66l-35 60.34c-1.38 2.4-4.74 4.33-7.5 4.33h-70c-2.76 0-6.12-1.94-7.5-4.33z" stroke="#000" stroke-width="2" fill="#fff" filter="url(#a)"/><path d="M135 161h85c2.76 0 3.08 1.15.7 2.57l-81.4 48.86c-2.38 1.42-2.06 2.57.7 2.57h85" stroke="#000" stroke-width="2" fill="none"/><path d="M216 209l9 6-9 6" stroke="#000" stroke-width="2" fill="none"/><path d="M135 166c0-2.76 2.24-5 5-5h80c2.76 0 5 2.24 5 5v50c0 2.76-2.24 5-5 5h-80c-2.76 0-5-2.24-5-5z" fill="none"/><defs><filter id="a" filterUnits="objectBoundingBox" x="-.03" y="-.05" width="1.13" height="1.14"><feOffset result="offOut" in="SourceAlpha" dx="5.12" dy="3.13"/><feGaussianBlur result="blurOut" in="offOut" stdDeviation="5"/><feColorMatrix result="colorOut" in="blurOut" values="0 0 0 0 0 0 0 0 0 0 0 0 0 0 0 0 0 0 0.5019607843137255 0"/><feBlend in="SourceGraphic" in2="colorOut"/></filter></defs></g></svg>