<svg id="Layer_1" data-name="Layer 1" xmlns="http://www.w3.org/2000/svg" viewBox="0 0 363.5 242"><defs><style>.cls-1{fill:none;}.cls-2{fill:#d11c24;}.cls-3{fill:red;}.cls-4{fill:#fff;}</style></defs><title>genius-logo</title><path class="cls-1" d="M0,242V0H363.5V242H0Zm251.91-47.86c0.13,0.37.34,1.07,0.62,1.74,1.68,4,6.63,6.56,11.84,6,3.83-.38,6.53-3.11,7.66-7.46a3.61,3.61,0,0,1,1.94-1.65c2.81-1.35,5.77-2.42,8.48-3.93a3,3,0,0,0,1.09-4.54c-1.18-1.7-3-1.9-4.9-.82a20.79,20.79,0,0,1-3.43,2c-2,.68-4.4,1.58-6-0.42a10.38,10.38,0,0,1-2.45-8.14c0.64-4.63-1.12-6.6-5.78-6a6.69,6.69,0,0,0-3.87,2.64c-2.86,3.88-5.14,8.22-8.22,11.9a45.77,45.77,0,0,1-8.75,7.64c-2,1.41-4,.38-4.56-2a18.19,18.19,0,0,1-.31-4.7c0.07-3.08.41-6.16,0.39-9.23a3.53,3.53,0,0,0-3.54-3.79c-2.19-.16-3.4,1.15-3.93,3.11a16.45,16.45,0,0,0-.41,3c-0.26,3.15-.43,6.32-0.76,9.47-0.3,2.82-1.74,4.13-4.54,4.38-3.42.31-5.66-1.17-5.85-4.6a80.62,80.62,0,0,1,.56-9.93c0.16-2.34-.82-3.93-3.15-4.37s-3.63,1-4,2.89c-0.65,3.06-1.4,6.27-1.06,9.3,0.35,3.23-1,4.81-3.38,6.16-2.85,1.63-5.42.69-6.09-2.52a21.56,21.56,0,0,1,0-5.93c0.15-2,.63-3.95.86-5.93,0.31-2.7-.75-4.4-2.87-4.8-2.67-.51-5,0.83-5.43,3.48a38,38,0,0,0-.66,9.66c0.32,2.85-.57,4.54-2.85,5.64-1.25.6-3.1,1.34-4,.83s-1.24-2.52-1.22-3.87c0.06-3.15.68-6.29,0.7-9.44,0-4-2.92-6.76-7-7-4.32-.29-7.18,2.14-9.81,5.07-0.63.7-1.22,1.43-1.83,2.14l-0.64-.21c-0.13-1.36-.29-2.71-0.39-4.07-0.16-2.09-1.35-2.89-3.34-2.81-2.64.1-4.34,2-4.5,5.29-0.15,3.16-.07,6.33-0.25,9.49,0,0.91-.35,2.23-1,2.61a59.68,59.68,0,0,1-8.17,4.07c-1,.38-2.32-0.2-3.93-0.39,7.17-7.39,8.61-13.08,4.47-17.41a10.19,10.19,0,0,0-5.17-2.62c-4.66-.91-8.43,1-11,4.65-1.44-.83-2.55-2-3.65-2a106.66,106.66,0,0,1-21-1.86,3.18,3.18,0,0,0-3.93,2.64c-0.43,2.18.33,3.94,2.47,4.55a64.66,64.66,0,0,0,7.78,1.55c2.45,0.39,3.44,1.54,2.8,3.92a7.71,7.71,0,0,1-1.65,3c-4.84,5.42-15.93,4.1-19.22-2.39-3-5.93-2.66-12.08-.26-18.15a14.46,14.46,0,0,1,8.28-8.53c3.83-1.53,6.92-.8,9.67,2.24a18.6,18.6,0,0,0,2.43,2.5,4.17,4.17,0,0,0,5.32.09,3.75,3.75,0,0,0,1.05-5.13,11.91,11.91,0,0,0-2.37-3.17,19.82,19.82,0,0,0-23.41-2.32c-9.63,5.88-13.37,18-11.36,28.44,2.48,12.83,12.15,19,25.06,16.87,7.64-1.25,13.85-7.21,14.66-14.08,0.42-3.53,1.15-4,5.27-3.57-0.08.88-.17,1.76-0.24,2.64-0.52,7,4.1,13.48,10.7,14.95a23.15,23.15,0,0,0,14.88-1.61c1.44-.65,2.48-1.11,3.94.32,1.64,1.6,4.73.49,5.48-1.74a17.33,17.33,0,0,0,.69-3.66c0.6-5.58,3.69-9.73,7.87-13.07,2.08-1.66,3.83-.63,4,2.1a27.89,27.89,0,0,1-.26,3.73c-0.16,2.16-.46,4.32-0.44,6.47,0,4.6,2.63,7.17,7.24,7.59,3.52,0.31,6.48-1,9.41-2.73,0.73-.43,2.27-0.61,2.74-0.17,4.76,4.51,11,3,14.88,0,1.42-1.09,2.33-1.23,3.82,0a11.55,11.55,0,0,0,14.72-.19c1.48-1.33,2.33-1.56,3.77.08,2.56,2.92,6,3.9,9.49,2.14C245.41,198.51,248.5,196.26,251.91,194.14ZM156.74,95.29c0.39,2,.65,5.81,1.89,9.28,4,11.13,15,17.29,26.72,15.11,9-1.69,15.94-6.16,17.92-15.7,0.69-3.33,1.31-5.55,5.21-5.8,2.17-.14,2.77-2.08,2.59-4.16s-1.67-2.78-3.44-2.9a44.08,44.08,0,0,0-5.74,0,41.56,41.56,0,0,1-14.57-1.61,15,15,0,0,0-4.45-.42c-1.89,0-3.45.78-3.89,2.83s-0.13,4.28,2.16,5a56,56,0,0,0,9.42,2c3.1,0.4,4.45,1.69,3.71,4.74a9.75,9.75,0,0,1-2.17,4.1c-5.34,5.86-19.76,5.14-23.34-4.15a27.22,27.22,0,0,1-.22-19.3c1.58-4.56,4.25-8.35,8.66-10.53,6.15-3,10.07-2.39,13.71,2.4a14.65,14.65,0,0,0,2,2.18,5.11,5.11,0,0,0,6.45.35,4.58,4.58,0,0,0,1-6.09,16.87,16.87,0,0,0-3.49-4.18,22.92,22.92,0,0,0-28-.84C160.17,74,157.15,83.17,156.74,95.29ZM135,83.5l-1.15-.11a12.89,12.89,0,0,0-.61,3.1c0.27,5.22,1.11,10.44.9,15.63-0.23,6,2.79,10.54,5.47,15.19a48,48,0,0,0,16.51,17.32A81.33,81.33,0,0,0,167,140c1.9,0.8,4.1.9,6.16,1.33,0.89,0.19,1.77.46,2.66,0.64a39.17,39.17,0,0,0,23.47-2,82.66,82.66,0,0,0,15.35-8c10.25-7.26,15.64-17.88,18.58-29.83a45.53,45.53,0,0,0,.66-6.68L233,95.26a19.05,19.05,0,0,0-.9,2.36c-0.57,2.34-.9,4.76-1.6,7.06a46,46,0,0,1-9.76,18,83.87,83.87,0,0,1-9.26,9,36.43,36.43,0,0,1-9.64,5.39c-5.1,2-10.19,3.4-15.65,3.25a86.77,86.77,0,0,1-12-.68c-7.5-1.26-14-5.06-20.06-9.42a47.25,47.25,0,0,1-6.74-5.82,72,72,0,0,1-5.1-6.65,3.63,3.63,0,0,1-.46-0.89c-1.88-4.94-4.07-9.79-5.53-14.85-1.27-4.43-2.22-9-1.37-13.77A27.67,27.67,0,0,0,135,83.5Zm61.63,86.71a5.29,5.29,0,0,0,5.16-5.26,4,4,0,0,0-4.28-4.1,5.39,5.39,0,0,0-5.48,5.23C192,168.57,193.9,170.23,196.59,170.21Zm-61.86-89,1.09,0c1-4.16,1.74-8.4,4.25-12s4.66-7.22,7-10.84c-0.76-.29-1-0.26-1.18-0.11a55.4,55.4,0,0,0-11.7,20C133.89,79.1,134.52,80.22,134.73,81.19ZM190.8,42l-0.15-.78c-5.84-.33-11.76-2.57-17.5,1.13,1.55,0.51,3.31,1.14,4.65.63,3.27-1.24,6.47-1,9.77-.55A12.76,12.76,0,0,0,190.8,42ZM147.75,56.81l0.7,0.73,12.23-10.05-0.56-.65C155,49,151.08,52.55,147.75,56.81Zm15.38-10.26c8-1.72,8-1.72,7.57-3.79C163.85,44.77,163.85,44.77,163.13,46.55Z"/><path d="M251.91,194.14c-3.42,2.13-6.5,4.37-9.87,6.05-3.53,1.76-6.93.78-9.49-2.14-1.44-1.64-2.29-1.41-3.77-.08a11.55,11.55,0,0,1-14.72.19c-1.49-1.25-2.4-1.12-3.82,0-3.89,3-10.12,4.52-14.88,0-0.47-.44-2-0.26-2.74.17-2.93,1.72-5.89,3-9.41,2.73-4.61-.41-7.2-3-7.24-7.59,0-2.16.28-4.31,0.44-6.47a27.89,27.89,0,0,0,.26-3.73c-0.17-2.73-1.92-3.76-4-2.1-4.18,3.34-7.26,7.49-7.87,13.07a17.33,17.33,0,0,1-.69,3.66c-0.75,2.23-3.84,3.34-5.48,1.74-1.46-1.42-2.5-1-3.94-.32a23.15,23.15,0,0,1-14.88,1.61c-6.6-1.47-11.21-8-10.7-14.95,0.07-.89.16-1.77,0.24-2.64-4.12-.48-4.85,0-5.27,3.57-0.82,6.87-7,12.83-14.66,14.08-12.91,2.11-22.58-4-25.06-16.87-2-10.4,1.73-22.57,11.36-28.44A19.82,19.82,0,0,1,119.13,158a11.91,11.91,0,0,1,2.37,3.17,3.75,3.75,0,0,1-1.05,5.13,4.17,4.17,0,0,1-5.32-.09,18.6,18.6,0,0,1-2.43-2.5c-2.75-3-5.85-3.77-9.67-2.24A14.46,14.46,0,0,0,94.75,170c-2.4,6.07-2.74,12.22.26,18.15,3.29,6.5,14.38,7.82,19.22,2.39a7.71,7.71,0,0,0,1.65-3c0.64-2.38-.35-3.53-2.8-3.92a64.66,64.66,0,0,1-7.78-1.55c-2.15-.62-2.9-2.37-2.47-4.55a3.18,3.18,0,0,1,3.93-2.64,106.66,106.66,0,0,0,21,1.86c1.09,0,2.2,1.17,3.65,2,2.55-3.66,6.31-5.57,11-4.65a10.19,10.19,0,0,1,5.17,2.62c4.14,4.33,2.7,10-4.47,17.41,1.62,0.19,3,.77,3.93.39a59.68,59.68,0,0,0,8.17-4.07c0.63-.37.94-1.7,1-2.61,0.17-3.16.1-6.33,0.25-9.49,0.16-3.31,1.86-5.19,4.5-5.29,2-.08,3.18.73,3.34,2.81,0.11,1.36.26,2.71,0.39,4.07l0.64,0.21c0.61-.72,1.2-1.45,1.83-2.14,2.63-2.93,5.49-5.36,9.81-5.07,4,0.27,7,3,7,7,0,3.15-.65,6.29-0.7,9.44,0,1.34.34,3.38,1.22,3.87s2.77-.23,4-0.83c2.29-1.1,3.17-2.79,2.85-5.64a38,38,0,0,1,.66-9.66c0.39-2.65,2.77-4,5.43-3.48,2.11,0.4,3.17,2.1,2.87,4.8-0.23,2-.71,3.94-0.86,5.93a21.56,21.56,0,0,0,0,5.93c0.67,3.21,3.24,4.15,6.09,2.52,2.36-1.35,3.73-2.93,3.38-6.16-0.33-3,.42-6.25,1.06-9.3,0.4-1.87,1.79-3.32,4-2.89s3.31,2,3.15,4.37a80.62,80.62,0,0,0-.56,9.93c0.19,3.43,2.43,4.91,5.85,4.6,2.8-.25,4.24-1.56,4.54-4.38,0.33-3.15.5-6.31,0.76-9.47a16.45,16.45,0,0,1,.41-3c0.54-2,1.75-3.27,3.93-3.11a3.53,3.53,0,0,1,3.54,3.79c0,3.08-.32,6.15-0.39,9.23a18.19,18.19,0,0,0,.31,4.7c0.59,2.4,2.56,3.44,4.56,2a45.77,45.77,0,0,0,8.75-7.64c3.08-3.68,5.36-8,8.22-11.9A6.69,6.69,0,0,1,261,171c4.66-.63,6.42,1.33,5.78,6a10.38,10.38,0,0,0,2.45,8.14c1.62,2,4,1.1,6,.42a20.79,20.79,0,0,0,3.43-2c1.85-1.07,3.73-.87,4.9.82a3,3,0,0,1-1.09,4.54c-2.72,1.5-5.68,2.57-8.48,3.93a3.61,3.61,0,0,0-1.94,1.65c-1.13,4.35-3.83,7.08-7.66,7.46-5.21.51-10.16-2-11.84-6C252.26,195.2,252,194.5,251.91,194.14Zm-115.85-7.06c0.51,2.57,1.31,3.48,2.63,2.61a7.33,7.33,0,0,0,3.67-5.88,2.82,2.82,0,0,0-1.16-2.22,2.48,2.48,0,0,0-2.37.45A44,44,0,0,0,136.06,187.07Zm126.86,3.6c-1.77,1.2-4,1.94-4.15,3-0.27,1.86,1.83,2.2,3.44,2.25s3.09-.66,2.93-2.52C265.08,192.6,264,191.9,262.92,190.67Zm-2.47-9.77-0.75-.23-3.28,6.06,0.69,0.53,4.9-1.44Z"/><path class="cls-2" d="M156.74,95.29c0.41-12.12,3.43-21.24,12.11-27.73a22.92,22.92,0,0,1,28,.84,16.87,16.87,0,0,1,3.49,4.18,4.58,4.58,0,0,1-1,6.09,5.11,5.11,0,0,1-6.45-.35,14.65,14.65,0,0,1-2-2.18c-3.64-4.78-7.55-5.44-13.71-2.4-4.42,2.18-7.08,6-8.66,10.53a27.22,27.22,0,0,0,.22,19.3c3.58,9.29,18,10,23.34,4.15a9.75,9.75,0,0,0,2.17-4.1c0.74-3-.61-4.34-3.71-4.74a56,56,0,0,1-9.42-2c-2.29-.71-2.61-2.85-2.16-5s2-2.81,3.89-2.83a15,15,0,0,1,4.45.42,41.56,41.56,0,0,0,14.57,1.61,44.08,44.08,0,0,1,5.74,0c1.77,0.12,3.25.77,3.44,2.9s-0.43,4-2.59,4.16c-3.91.25-4.52,2.47-5.21,5.8-2,9.54-8.88,14-17.92,15.7-11.68,2.18-22.76-4-26.72-15.11A29.63,29.63,0,0,1,156.74,95.29Z"/><path class="cls-2" d="M135,83.5a27.67,27.67,0,0,1,0,4.79c-0.85,4.74.1,9.34,1.37,13.77,1.46,5.06,3.65,9.91,5.53,14.85a3.63,3.63,0,0,0,.46.89,72,72,0,0,0,5.1,6.65,47.25,47.25,0,0,0,6.74,5.82c6.1,4.36,12.56,8.16,20.06,9.42a86.77,86.77,0,0,0,12,.68c5.46,0.14,10.55-1.26,15.65-3.25a36.43,36.43,0,0,0,9.64-5.39,83.87,83.87,0,0,0,9.26-9,46,46,0,0,0,9.76-18c0.7-2.3,1-4.71,1.6-7.06a19.05,19.05,0,0,1,.9-2.36l0.81,0.15a45.53,45.53,0,0,1-.66,6.68c-2.94,11.95-8.33,22.57-18.58,29.83a82.66,82.66,0,0,1-15.35,8,39.17,39.17,0,0,1-23.47,2c-0.89-.18-1.77-0.45-2.66-0.64-2.06-.43-4.26-0.53-6.16-1.33a81.33,81.33,0,0,1-10.88-5.37,48,48,0,0,1-16.51-17.32c-2.68-4.66-5.7-9.23-5.47-15.19,0.2-5.19-.63-10.42-0.9-15.63a12.89,12.89,0,0,1,.61-3.1Z"/><path d="M196.59,170.21c-2.69,0-4.54-1.64-4.6-4.12a5.39,5.39,0,0,1,5.48-5.23,4,4,0,0,1,4.28,4.1A5.29,5.29,0,0,1,196.59,170.21Z"/><path class="cls-2" d="M134.73,81.19c-0.21-1-.85-2.08-0.57-2.89a55.4,55.4,0,0,1,11.7-20c0.14-.15.42-0.18,1.18,0.11-2.31,3.62-4.51,7.32-7,10.84s-3.25,7.82-4.25,12Z"/><path class="cls-2" d="M190.8,42a12.76,12.76,0,0,1-3.23.43c-3.3-.41-6.49-0.69-9.77.55-1.33.51-3.1-.12-4.65-0.63,5.73-3.7,11.65-1.46,17.5-1.13Z"/><path class="cls-2" d="M147.75,56.81c3.34-4.26,7.23-7.86,12.37-10l0.56,0.65L148.45,57.54Z"/><path class="cls-3" d="M163.13,46.55c0.73-1.78.73-1.78,7.57-3.79C171.09,44.83,171.09,44.83,163.13,46.55Z"/><path class="cls-4" d="M136.06,187.07a44,44,0,0,1,2.76-5,2.48,2.48,0,0,1,2.37-.45,2.82,2.82,0,0,1,1.16,2.22,7.33,7.33,0,0,1-3.67,5.88C137.37,190.55,136.57,189.64,136.06,187.07Z"/><path class="cls-4" d="M262.92,190.67c1.05,1.23,2.15,1.93,2.22,2.71,0.16,1.86-1.24,2.58-2.93,2.52s-3.71-.39-3.44-2.25C258.93,192.61,261.15,191.87,262.92,190.67Z"/><path class="cls-4" d="M260.45,180.9l1.56,4.91-4.9,1.44-0.69-.53,3.28-6.06Z"/></svg>