<svg xmlns="http://www.w3.org/2000/svg" xmlns:xlink="http://www.w3.org/1999/xlink" xmlns:lucid="lucid" width="1288" height="705.8"><g transform="translate(-12 -60)" lucid:page-tab-id="0_0"><path d="M680 220.8h600v340H680z" fill="#99d5ca"/><path d="M690 220.8h4m8 0h4m8 0h4m8 0h4m8 0h4m8 0h4m8 0h4m8 0h4m8 0h4m8 0h4m8 0h4m8 0h4m8 0h4m8 0h4m8 0h4m8 0h4m8 0h4m8 0h4m8 0h4m8 0h4m8 0h4m8 0h4m8 0h4m8 0h4m8 0h4m8 0h4m8 0h4m8 0h4m8 0h4m8 0h4m8 0h4m8 0h4m8 0h4m8 0h4m8 0h4m8 0h4m8 0h4m8 0h4m8 0h4m8 0h4m8 0h4m8 0h4m8 0h4m8 0h4m8 0h4m8 0h4m8 0h4m8 0h4m8 0h4m8 0h2v2.02m0 8.1v4.05m0 8.1v4.04m0 8.1v4.05m0 8.1v4.05m0 8.1v4.04m0 8.1v4.04m0 8.1v4.04m0 8.1v4.05m0 8.1v4.04m0 8.1v4.05m0 8.1v4.05m0 8.1v4.04m0 8.1v4.04m0 8.1v4.04m0 8.1v4.05m0 8.1v4.04m0 8.1v4.05m0 8.1v4.05m0 8.1v4.04m0 8.1v4.04m0 8.1v4.04m0 8.1v4.05m0 8.1v4.04m0 8.1v4.05m0 8.1v4.05m0 8.1v4.04m0 8.1v4.04m0 8.1v2.02h-2m-8 0h-4m-8 0h-4m-8 0h-4m-8 0h-4m-8 0h-4m-8 0h-4m-8 0h-4m-8 0h-4m-8 0h-4m-8 0h-4m-8 0h-4m-8 0h-4m-8 0h-4m-8 0h-4m-8 0h-4m-8 0h-4m-8 0h-4m-8 0h-4m-8 0h-4m-8 0h-4m-8 0h-4m-8 0h-4m-8 0h-4m-8 0h-4m-8 0h-4m-8 0h-4m-8 0h-4m-8 0h-4m-8 0h-4m-8 0h-4m-8 0h-4m-8 0h-4m-8 0h-4m-8 0h-4m-8 0h-4m-8 0h-4m-8 0h-4m-8 0h-4m-8 0h-4m-8 0h-4m-8 0h-4m-8 0h-4m-8 0h-4m-8 0h-4m-8 0h-4m-8 0h-4m-8 0h-4m-8 0h-4m-8 0h-4m-8 0h-2v-2.02m0-8.1v-4.05m0-8.1v-4.04m0-8.1v-4.05m0-8.1v-4.05m0-8.1v-4.04m0-8.1v-4.04m0-8.1v-4.04m0-8.1v-4.05m0-8.1v-4.04m0-8.1v-4.05m0-8.1v-4.05m0-8.1v-4.04m0-8.1v-4.04m0-8.1v-4.04m0-8.1v-4.05m0-8.1v-4.04m0-8.1v-4.05m0-8.1v-4.05m0-8.1v-4.04m0-8.1v-4.04m0-8.1v-4.04m0-8.1v-4.05m0-8.1v-4.04m0-8.1v-4.05m0-8.1v-4.05m0-8.1v-4.04m0-8.1v-4.04m0-8.1v-2.02h2" stroke="#000" stroke-width="2" fill="none"/><path d="M32 220h488v340H32z" fill="#b2d6ef"/><path d="M41.92 220h3.97m7.92 0h3.97m7.92 0h3.97m7.93 0h3.96m7.93 0h3.97m7.93 0h3.97m7.93 0h3.97m7.94 0h3.96m7.94 0h3.97m7.94 0H153m7.94 0h3.97m7.95 0h3.96m7.95 0h3.97m7.93 0h3.97m7.93 0h3.97m7.94 0h3.96m7.94 0h3.97m7.93 0h3.97m7.93 0h3.97m7.94 0h3.96m7.94 0h3.96m7.94 0h3.97m7.93 0h3.97m7.93 0h3.97m7.94 0h3.96m7.94 0h3.97m7.93 0h3.97m7.93 0h3.97m7.94 0h3.95m7.94 0h3.96m7.93 0h3.96m7.93 0h3.96m7.94 0h3.96m7.94 0h3.97m7.93 0h3.97m7.93 0h3.97m7.94 0h3.97m7.94 0h3.98m7.93 0h3.98m7.93 0h3.98m7.94 0H520v2.02m0 8.1v4.05m0 8.1v4.04m0 8.1v4.05m0 8.1v4.05m0 8.1v4.04m0 8.1v4.04m0 8.1v4.04m0 8.1v4.05m0 8.1v4.04m0 8.1v4.05m0 8.1v4.05m0 8.1v4.04m0 8.1v4.04m0 8.1v4.04m0 8.1v4.05m0 8.1v4.04m0 8.1v4.05m0 8.1v4.05m0 8.1v4.04m0 8.1v4.04m0 8.1v4.04m0 8.1v4.05m0 8.1v4.04m0 8.1v4.05m0 8.1v4.05m0 8.1v4.04m0 8.1v4.04m0 8.1V560h-1.98m-7.94 0h-3.97m-7.92 0h-3.97m-7.92 0h-3.97m-7.93 0h-3.96m-7.93 0h-3.97m-7.93 0h-3.97m-7.93 0h-3.97m-7.94 0h-3.96m-7.94 0h-3.97m-7.94 0H399m-7.94 0h-3.97m-7.95 0h-3.96m-7.95 0h-3.97m-7.93 0h-3.97m-7.93 0h-3.97m-7.94 0h-3.96m-7.94 0h-3.97m-7.93 0h-3.97m-7.93 0h-3.97m-7.94 0h-3.96m-7.94 0h-3.96m-7.94 0h-3.97m-7.93 0h-3.97m-7.93 0h-3.97m-7.94 0h-3.96m-7.94 0h-3.97m-7.93 0h-3.97m-7.93 0h-3.97m-7.94 0h-3.95m-7.94 0h-3.96m-7.93 0h-3.96m-7.93 0h-3.96m-7.94 0h-3.96m-7.94 0h-3.97m-7.93 0h-3.97m-7.93 0h-3.97m-7.94 0h-3.97m-7.94 0H65.7m-7.93 0H53.8m-7.93 0H41.9m-7.94 0H32v-2.02m0-8.1v-4.05m0-8.1v-4.04m0-8.1v-4.05m0-8.1v-4.05m0-8.1v-4.04m0-8.1v-4.04m0-8.1v-4.04m0-8.1v-4.05m0-8.1v-4.04m0-8.1v-4.05m0-8.1v-4.05m0-8.1v-4.04m0-8.1v-4.04m0-8.1v-4.04m0-8.1v-4.05m0-8.1v-4.04m0-8.1v-4.05m0-8.1v-4.05m0-8.1v-4.04m0-8.1v-4.04m0-8.1v-4.04m0-8.1v-4.05m0-8.1v-4.04m0-8.1v-4.05m0-8.1v-4.05m0-8.1v-4.04m0-8.1v-4.04m0-8.1V220h1.98" stroke="#000" stroke-width="2" fill="none"/><path d="M746 462.13c-28.17 0-51-27.46-51-61.33 0-27.1 13.8-49.96 35.24-58.33C729 262.8 814 247.47 848 278.13c17-46 102-30.66 102 15.34 51-15.34 102 46 68 122.66 34 61.34 0 138-68 107.34-17 39.86-85 39.86-102 0-34 30.66-102 15.33-102-61.34z" stroke="#000" stroke-width="2" fill="#fff"/><path d="M790 314.13h160v40l-80 26.67-80-26.67z" stroke="#000" stroke-width="2" fill="#ffeca9"/><use xlink:href="#a" transform="matrix(1,0,0,1,795,319.13333333331394) translate(30.099999999999994 32.1)"/><use xlink:href="#b" transform="matrix(1,0,0,1,795,319.13333333331394) translate(74.95 32.1)"/><path d="M790 380.8h160v40l-80 26.67-80-26.67z" stroke="#000" stroke-width="2" fill="#ffdf71"/><use xlink:href="#a" transform="matrix(1,0,0,1,795,385.79999999998057) translate(26.124999999999993 32.1)"/><use xlink:href="#c" transform="matrix(1,0,0,1,795,385.79999999998057) translate(70.975 32.1)"/><path d="M790 447.47h160v40l-80 26.66-80-26.66z" stroke="#000" stroke-width="2" fill="#fcc438"/><use xlink:href="#a" transform="matrix(1,0,0,1,795,452.4666666666472) translate(12.124999999999993 32.1)"/><use xlink:href="#d" transform="matrix(1,0,0,1,795,452.4666666666472) translate(56.975 32.1)"/><path d="M919 621.6c19.88 0 36 17.9 36 40s-16.12 40-36 40H811c-19.88 0-36-17.9-36-40s16.12-40 36-40z" stroke="#000" stroke-width="2" fill="#a3d977"/><use xlink:href="#e" transform="matrix(1,0,0,1,780,626.5999999999999) translate(10.125 27.799999999999997)"/><use xlink:href="#f" transform="matrix(1,0,0,1,780,626.5999999999999) translate(72.025 27.799999999999997)"/><use xlink:href="#g" transform="matrix(1,0,0,1,780,626.5999999999999) translate(35.05 49.4)"/><use xlink:href="#h" transform="matrix(1,0,0,1,780,626.5999999999999) translate(64.95 49.4)"/><path d="M837 80h66l22 40-22 40h-66l-22-40z" stroke="#000" stroke-width="2" fill="#c7e8ac"/><use xlink:href="#i" transform="matrix(1,0,0,1,820,85) translate(19.525 38.6)"/><path d="M1020 240h240v60h-240z" stroke="#000" stroke-opacity="0" stroke-width="2" fill="#fff" fill-opacity="0"/><use xlink:href="#j" transform="matrix(1,0,0,1,1025,245) translate(51.179012345679 31.22222222222222)"/><use xlink:href="#k" transform="matrix(1,0,0,1,1025,245) translate(128.69753086419752 31.22222222222222)"/><path d="M400 327.47l80 60-80 60-80-60z" stroke="#000" stroke-width="2" fill="#fff"/><use xlink:href="#l" transform="matrix(1,0,0,1,325,332.4666666666744) translate(42.14999999999999 58.6)"/><use xlink:href="#m" transform="matrix(1,0,0,1,325,332.4666666666744) translate(87 58.6)"/><path d="M400 326.22V120h395.62" stroke="#000" stroke-width="2" fill="none"/><path d="M401 328.22l-1-.75-1 .75v-2h2zM810.62 120l-14.26 4.64v-9.28z"/><path d="M813.86 120l-18.5 6v-12zm-16.5 3.26L807.4 120l-10.04-3.26z"/><path d="M870 161v133.9" stroke="#000" stroke-width="2" fill="none"/><path d="M871 161h-2v-1h2zM870 309.9l-4.64-14.27h9.28z"/><path d="M870 313.13l-6-18.5h12zm-3.26-16.5l3.26 10.03 3.26-10.03z"/><path d="M870 515.2v87.16" stroke="#000" stroke-width="2" fill="none"/><path d="M871 515.2h-2v-1.4l1 .33 1-.33zM870 617.36l-4.64-14.26h9.28z"/><path d="M870 620.6l-6-18.5h12zm-3.26-16.5l3.26 10.03 3.26-10.03z"/><path d="M774 661.6H400V466.95" stroke="#000" stroke-width="2" fill="none"/><path d="M775 661.6l.04 1H774v-2h1.06zM404.64 466.22h-9.28l4.64-14.27z"/><path d="M406 467.22h-12l6-18.5zm-9.26-2h6.52L400 455.2z"/><path d="M40 240h240v60H40z" stroke="#000" stroke-opacity="0" stroke-width="2" fill="#fff" fill-opacity="0"/><use xlink:href="#n" transform="matrix(1,0,0,1,45,245) translate(17.993827160493822 31.22222222222222)"/><use xlink:href="#o" transform="matrix(1,0,0,1,45,245) translate(113.57407407407408 31.22222222222222)"/><path d="M80 330.8h144v102c-24.05-17.03-39.02-17.03-48.1-17.03-14.4 0-33.55 17.03-47.95 17.03-8.93 0-24.05 0-47.95-17.03z" stroke="#000" stroke-width="2" fill="#7ab648"/><path d="M88 339.8h144v102c-24.05-17.03-39.02-17.03-48.1-17.03-14.4 0-33.55 17.03-47.95 17.03-8.93 0-24.05 0-47.95-17.03z" stroke="#000" stroke-width="2" fill="#7ab648"/><path d="M96 348.8h144v102c-24.05-17.03-39.02-17.03-48.1-17.03-14.4 0-33.55 17.03-47.95 17.03-8.93 0-24.05 0-47.95-17.03z" stroke="#000" stroke-width="2" fill="#7ab648"/><use xlink:href="#p" transform="matrix(1,0,0,1,101,353.80000000004657) translate(38.55 19.5)"/><use xlink:href="#q" transform="matrix(1,0,0,1,101,353.80000000004657) translate(15.324999999999996 41.1)"/><use xlink:href="#r" transform="matrix(1,0,0,1,101,353.80000000004657) translate(108.17500000000001 41.1)"/><use xlink:href="#s" transform="matrix(1,0,0,1,101,353.80000000004657) translate(14.049999999999997 62.7)"/><use xlink:href="#t" transform="matrix(1,0,0,1,101,353.80000000004657) translate(80.95 62.7)"/><path d="M318.33 387.47h-59.1" stroke="#000" stroke-width="2" fill="none"/><path d="M320 387.47l1.33 1h-3v-2h3zM258.5 392.1l-14.26-4.63 14.26-4.64z"/><path d="M259.5 393.48l-18.5-6 18.5-6.03zm-12.03-6l10.03 3.25v-6.52z"/><path d="M400 80h380v20H400z" stroke="#000" stroke-opacity="0" stroke-width="2" fill="#fff" fill-opacity="0"/><g><use xlink:href="#u" transform="matrix(1,0,0,1,405,85) translate(22.224999999999994 14.4)"/><use xlink:href="#v" transform="matrix(1,0,0,1,405,85) translate(64.175 14.4)"/><use xlink:href="#w" transform="matrix(1,0,0,1,405,85) translate(92.125 14.4)"/><use xlink:href="#x" transform="matrix(1,0,0,1,405,85) translate(120.025 14.4)"/><use xlink:href="#y" transform="matrix(1,0,0,1,405,85) translate(137.97500000000002 14.4)"/><use xlink:href="#z" transform="matrix(1,0,0,1,405,85) translate(228.87500000000003 14.4)"/><use xlink:href="#A" transform="matrix(1,0,0,1,405,85) translate(253.87500000000003 14.4)"/><use xlink:href="#B" transform="matrix(1,0,0,1,405,85) translate(312.775 14.4)"/></g><path d="M380 681.6h380v20H380z" stroke="#000" stroke-opacity="0" stroke-width="2" fill="#fff" fill-opacity="0"/><g><use xlink:href="#C" transform="matrix(1,0,0,1,385,686.5999999999999) translate(27.650000000000006 14.4)"/><use xlink:href="#D" transform="matrix(1,0,0,1,385,686.5999999999999) translate(72.55000000000001 14.4)"/><use xlink:href="#E" transform="matrix(1,0,0,1,385,686.5999999999999) translate(134.45000000000002 14.4)"/><use xlink:href="#F" transform="matrix(1,0,0,1,385,686.5999999999999) translate(169.45000000000002 14.4)"/><use xlink:href="#x" transform="matrix(1,0,0,1,385,686.5999999999999) translate(213.45000000000002 14.4)"/><use xlink:href="#G" transform="matrix(1,0,0,1,385,686.5999999999999) translate(231.4 14.4)"/><use xlink:href="#H" transform="matrix(1,0,0,1,385,686.5999999999999) translate(322.35 14.4)"/><use xlink:href="#I" transform="matrix(1,0,0,1,385,686.5999999999999) translate(130.05 36)"/><use xlink:href="#J" transform="matrix(1,0,0,1,385,686.5999999999999) translate(211 36)"/><use xlink:href="#K" transform="matrix(1,0,0,1,385,686.5999999999999) translate(185 57.6)"/></g><path d="M40 450.8h240v74.8H40z" stroke="#000" stroke-opacity="0" stroke-width="2" fill="#fff" fill-opacity="0"/><g><use xlink:href="#L" transform="matrix(1,0,0,1,45,455.80000000004657) translate(2.625 25.299999999999997)"/><use xlink:href="#M" transform="matrix(1,0,0,1,45,455.80000000004657) translate(27.525 25.299999999999997)"/><use xlink:href="#N" transform="matrix(1,0,0,1,45,455.80000000004657) translate(57.525 25.299999999999997)"/><use xlink:href="#F" transform="matrix(1,0,0,1,45,455.80000000004657) translate(120.475 25.299999999999997)"/><use xlink:href="#x" transform="matrix(1,0,0,1,45,455.80000000004657) translate(164.475 25.299999999999997)"/><use xlink:href="#O" transform="matrix(1,0,0,1,45,455.80000000004657) translate(182.42499999999998 25.299999999999997)"/><use xlink:href="#P" transform="matrix(1,0,0,1,45,455.80000000004657) translate(30.049999999999997 46.9)"/><use xlink:href="#Q" transform="matrix(1,0,0,1,45,455.80000000004657) translate(69.05 46.9)"/><use xlink:href="#R" transform="matrix(1,0,0,1,45,455.80000000004657) translate(89.05 46.9)"/><use xlink:href="#S" transform="matrix(1,0,0,1,45,455.80000000004657) translate(170.95 46.9)"/></g><defs><path d="M209 0H11v-25l151-195H24v-28h176v25L50-27h159V0" id="T"/><path d="M210-169c-67 3-38 105-44 169h-31v-121c0-29-5-50-35-48C34-165 62-65 56 0H25l-1-190h30c1 10-1 24 2 32 10-44 99-50 107 0 11-21 27-35 58-36 85-2 47 119 55 194h-31v-121c0-29-5-49-35-48" id="U"/><path d="M100-194c63 0 86 42 84 106H49c0 40 14 67 53 68 26 1 43-12 49-29l28 8c-11 28-37 45-77 45C44 4 14-33 15-96c1-61 26-98 85-98zm52 81c6-60-76-77-97-28-3 7-6 17-6 28h103" id="V"/><path d="M24-231v-30h32v30H24zM24 0v-190h32V0H24" id="W"/><g id="a"><use transform="matrix(0.05,0,0,0.05,0,0)" xlink:href="#T"/><use transform="matrix(0.05,0,0,0.05,10.950000000000001,0)" xlink:href="#U"/><use transform="matrix(0.05,0,0,0.05,25.900000000000002,0)" xlink:href="#V"/><use transform="matrix(0.05,0,0,0.05,35.900000000000006,0)" xlink:href="#W"/></g><path d="M30 0v-248h33v221h125V0H30" id="X"/><path d="M141 0L90-78 38 0H4l68-98-65-92h35l48 74 47-74h35l-64 92 68 98h-35" id="Y"/><path d="M114-163C36-179 61-72 57 0H25l-1-190h30c1 12-1 29 2 39 6-27 23-49 58-41v29" id="Z"/><g id="b"><use transform="matrix(0.05,0,0,0.05,0,0)" xlink:href="#X"/><use transform="matrix(0.05,0,0,0.05,10,0)" xlink:href="#V"/><use transform="matrix(0.05,0,0,0.05,20,0)" xlink:href="#Y"/><use transform="matrix(0.05,0,0,0.05,29,0)" xlink:href="#V"/><use transform="matrix(0.05,0,0,0.05,39,0)" xlink:href="#Z"/></g><path d="M30-248c87 1 191-15 191 75 0 78-77 80-158 76V0H30v-248zm33 125c57 0 124 11 124-50 0-59-68-47-124-48v98" id="aa"/><path d="M141-36C126-15 110 5 73 4 37 3 15-17 15-53c-1-64 63-63 125-63 3-35-9-54-41-54-24 1-41 7-42 31l-33-3c5-37 33-52 76-52 45 0 72 20 72 64v82c-1 20 7 32 28 27v20c-31 9-61-2-59-35zM48-53c0 20 12 33 32 33 41-3 63-29 60-74-43 2-92-5-92 41" id="ab"/><path d="M135-143c-3-34-86-38-87 0 15 53 115 12 119 90S17 21 10-45l28-5c4 36 97 45 98 0-10-56-113-15-118-90-4-57 82-63 122-42 12 7 21 19 24 35" id="ac"/><g id="c"><use transform="matrix(0.05,0,0,0.05,0,0)" xlink:href="#aa"/><use transform="matrix(0.05,0,0,0.05,12,0)" xlink:href="#ab"/><use transform="matrix(0.05,0,0,0.05,22,0)" xlink:href="#Z"/><use transform="matrix(0.05,0,0,0.05,27.950000000000003,0)" xlink:href="#ac"/><use transform="matrix(0.05,0,0,0.05,36.95,0)" xlink:href="#V"/><use transform="matrix(0.05,0,0,0.05,46.95,0)" xlink:href="#Z"/></g><path d="M143 4C61 4 22-44 18-125c-5-107 100-154 193-111 17 8 29 25 37 43l-32 9c-13-25-37-40-76-40-61 0-88 39-88 99 0 61 29 100 91 101 35 0 62-11 79-27v-45h-74v-28h105v86C228-13 192 4 143 4" id="ad"/><path d="M117-194c89-4 53 116 60 194h-32v-121c0-31-8-49-39-48C34-167 62-67 57 0H25l-1-190h30c1 10-1 24 2 32 11-22 29-35 61-36" id="ae"/><path d="M59-47c-2 24 18 29 38 22v24C64 9 27 4 27-40v-127H5v-23h24l9-43h21v43h35v23H59v120" id="af"/><path d="M100-194c62-1 85 37 85 99 1 63-27 99-86 99S16-35 15-95c0-66 28-99 85-99zM99-20c44 1 53-31 53-75 0-43-8-75-51-75s-53 32-53 75 10 74 51 75" id="ag"/><g id="d"><use transform="matrix(0.05,0,0,0.05,0,0)" xlink:href="#ad"/><use transform="matrix(0.05,0,0,0.05,14,0)" xlink:href="#V"/><use transform="matrix(0.05,0,0,0.05,24,0)" xlink:href="#ae"/><use transform="matrix(0.05,0,0,0.05,34,0)" xlink:href="#V"/><use transform="matrix(0.05,0,0,0.05,44,0)" xlink:href="#Z"/><use transform="matrix(0.05,0,0,0.05,49.95,0)" xlink:href="#ab"/><use transform="matrix(0.05,0,0,0.05,59.95,0)" xlink:href="#af"/><use transform="matrix(0.05,0,0,0.05,64.95,0)" xlink:href="#ag"/><use transform="matrix(0.05,0,0,0.05,74.95,0)" xlink:href="#Z"/></g><path d="M30-248c118-7 216 8 213 122C240-48 200 0 122 0H30v-248zM63-27c89 8 146-16 146-99s-60-101-146-95v194" id="ah"/><path d="M24-231v-30h32v30H24zM-9 49c24 4 33-6 33-30v-209h32V24c2 40-23 58-65 49V49" id="ai"/><path d="M177-190C167-65 218 103 67 71c-23-6-38-20-44-43l32-5c15 47 100 32 89-28v-30C133-14 115 1 83 1 29 1 15-40 15-95c0-56 16-97 71-98 29-1 48 16 59 35 1-10 0-23 2-32h30zM94-22c36 0 50-32 50-73 0-42-14-75-50-75-39 0-46 34-46 75s6 73 46 73" id="aj"/><g id="e"><use transform="matrix(0.05,0,0,0.05,0,0)" xlink:href="#ah"/><use transform="matrix(0.05,0,0,0.05,12.950000000000001,0)" xlink:href="#ai"/><use transform="matrix(0.05,0,0,0.05,16.900000000000002,0)" xlink:href="#ab"/><use transform="matrix(0.05,0,0,0.05,26.900000000000002,0)" xlink:href="#ae"/><use transform="matrix(0.05,0,0,0.05,36.900000000000006,0)" xlink:href="#aj"/><use transform="matrix(0.05,0,0,0.05,46.900000000000006,0)" xlink:href="#ag"/></g><path d="M205 0l-28-72H64L36 0H1l101-248h38L239 0h-34zm-38-99l-47-123c-12 45-31 82-46 123h93" id="ak"/><path d="M115-194c55 1 70 41 70 98S169 2 115 4C84 4 66-9 55-30l1 105H24l-1-265h31l2 30c10-21 28-34 59-34zm-8 174c40 0 45-34 45-75s-6-73-45-74c-42 0-51 32-51 76 0 43 10 73 51 73" id="al"/><path d="M24 0v-261h32V0H24" id="am"/><path d="M96-169c-40 0-48 33-48 73s9 75 48 75c24 0 41-14 43-38l32 2c-6 37-31 61-74 61-59 0-76-41-82-99-10-93 101-131 147-64 4 7 5 14 7 22l-32 3c-4-21-16-35-41-35" id="an"/><g id="f"><use transform="matrix(0.05,0,0,0.05,0,0)" xlink:href="#ak"/><use transform="matrix(0.05,0,0,0.05,12,0)" xlink:href="#al"/><use transform="matrix(0.05,0,0,0.05,22,0)" xlink:href="#al"/><use transform="matrix(0.05,0,0,0.05,32,0)" xlink:href="#am"/><use transform="matrix(0.05,0,0,0.05,35.95,0)" xlink:href="#W"/><use transform="matrix(0.05,0,0,0.05,39.900000000000006,0)" xlink:href="#an"/><use transform="matrix(0.05,0,0,0.05,48.900000000000006,0)" xlink:href="#ab"/><use transform="matrix(0.05,0,0,0.05,58.900000000000006,0)" xlink:href="#af"/><use transform="matrix(0.05,0,0,0.05,63.900000000000006,0)" xlink:href="#W"/><use transform="matrix(0.05,0,0,0.05,67.85000000000001,0)" xlink:href="#ag"/><use transform="matrix(0.05,0,0,0.05,77.85000000000001,0)" xlink:href="#ae"/></g><g id="g"><use transform="matrix(0.05,0,0,0.05,0,0)" xlink:href="#T"/><use transform="matrix(0.05,0,0,0.05,10.950000000000001,0)" xlink:href="#W"/><use transform="matrix(0.05,0,0,0.05,14.9,0)" xlink:href="#al"/></g><path d="M143 0L79-87 56-68V0H24v-261h32v163l83-92h37l-77 82L181 0h-38" id="ao"/><g id="h"><use transform="matrix(0.05,0,0,0.05,0,0)" xlink:href="#aa"/><use transform="matrix(0.05,0,0,0.05,12,0)" xlink:href="#ab"/><use transform="matrix(0.05,0,0,0.05,22,0)" xlink:href="#an"/><use transform="matrix(0.05,0,0,0.05,31,0)" xlink:href="#ao"/><use transform="matrix(0.05,0,0,0.05,40,0)" xlink:href="#ab"/><use transform="matrix(0.05,0,0,0.05,50,0)" xlink:href="#aj"/><use transform="matrix(0.05,0,0,0.05,60,0)" xlink:href="#V"/></g><path d="M33 0v-38h34V0H33" id="ap"/><g id="i"><use transform="matrix(0.05,0,0,0.05,0,0)" xlink:href="#an"/><use transform="matrix(0.05,0,0,0.05,9,0)" xlink:href="#ab"/><use transform="matrix(0.05,0,0,0.05,19,0)" xlink:href="#af"/><use transform="matrix(0.05,0,0,0.05,24,0)" xlink:href="#ac"/><use transform="matrix(0.05,0,0,0.05,33,0)" xlink:href="#ap"/><use transform="matrix(0.05,0,0,0.05,38,0)" xlink:href="#an"/><use transform="matrix(0.05,0,0,0.05,47,0)" xlink:href="#ag"/><use transform="matrix(0.05,0,0,0.05,57,0)" xlink:href="#am"/></g><g id="j"><use transform="matrix(0.08641975308641976,0,0,0.08641975308641976,0,0)" xlink:href="#T"/><use transform="matrix(0.08641975308641976,0,0,0.08641975308641976,18.925925925925927,0)" xlink:href="#U"/><use transform="matrix(0.08641975308641976,0,0,0.08641975308641976,44.76543209876544,0)" xlink:href="#V"/><use transform="matrix(0.08641975308641976,0,0,0.08641975308641976,62.04938271604939,0)" xlink:href="#W"/></g><path d="M33 0v-248h34V0H33" id="aq"/><g id="k"><use transform="matrix(0.08641975308641976,0,0,0.08641975308641976,0,0)" xlink:href="#ak"/><use transform="matrix(0.08641975308641976,0,0,0.08641975308641976,20.740740740740744,0)" xlink:href="#aa"/><use transform="matrix(0.08641975308641976,0,0,0.08641975308641976,41.48148148148149,0)" xlink:href="#aq"/></g><g id="l"><use transform="matrix(0.05,0,0,0.05,0,0)" xlink:href="#T"/><use transform="matrix(0.05,0,0,0.05,10.950000000000001,0)" xlink:href="#U"/><use transform="matrix(0.05,0,0,0.05,25.900000000000002,0)" xlink:href="#V"/><use transform="matrix(0.05,0,0,0.05,35.900000000000006,0)" xlink:href="#W"/></g><path d="M212-179c-10-28-35-45-73-45-59 0-87 40-87 99 0 60 29 101 89 101 43 0 62-24 78-52l27 14C228-24 195 4 139 4 59 4 22-46 18-125c-6-104 99-153 187-111 19 9 31 26 39 46" id="ar"/><g id="m"><use transform="matrix(0.05,0,0,0.05,0,0)" xlink:href="#ar"/><use transform="matrix(0.05,0,0,0.05,12.950000000000001,0)" xlink:href="#am"/><use transform="matrix(0.05,0,0,0.05,16.900000000000002,0)" xlink:href="#W"/></g><path d="M232-93c-1 65-40 97-104 97C67 4 28-28 28-90v-158h33c8 89-33 224 67 224 102 0 64-133 71-224h33v155" id="as"/><path d="M47-170H22l-4-78h33" id="at"/><g id="n"><use transform="matrix(0.08641975308641976,0,0,0.08641975308641976,0,0)" xlink:href="#as"/><use transform="matrix(0.08641975308641976,0,0,0.08641975308641976,22.38271604938272,0)" xlink:href="#ac"/><use transform="matrix(0.08641975308641976,0,0,0.08641975308641976,37.93827160493828,0)" xlink:href="#V"/><use transform="matrix(0.08641975308641976,0,0,0.08641975308641976,55.22222222222223,0)" xlink:href="#Z"/><use transform="matrix(0.08641975308641976,0,0,0.08641975308641976,65.50617283950618,0)" xlink:href="#at"/><use transform="matrix(0.08641975308641976,0,0,0.08641975308641976,71.38271604938272,0)" xlink:href="#ac"/></g><path d="M179-190L93 31C79 59 56 82 12 73V49c39 6 53-20 64-50L1-190h34L92-34l54-156h33" id="au"/><g id="o"><use transform="matrix(0.08641975308641976,0,0,0.08641975308641976,0,0)" xlink:href="#ac"/><use transform="matrix(0.08641975308641976,0,0,0.08641975308641976,15.555555555555557,0)" xlink:href="#au"/><use transform="matrix(0.08641975308641976,0,0,0.08641975308641976,31.111111111111114,0)" xlink:href="#ac"/><use transform="matrix(0.08641975308641976,0,0,0.08641975308641976,46.66666666666667,0)" xlink:href="#af"/><use transform="matrix(0.08641975308641976,0,0,0.08641975308641976,55.308641975308646,0)" xlink:href="#V"/><use transform="matrix(0.08641975308641976,0,0,0.08641975308641976,72.5925925925926,0)" xlink:href="#U"/></g><path fill="#fff" d="M30-248c118-7 216 8 213 122C240-48 200 0 122 0H30v-248zM63-27c89 8 146-16 146-99s-60-101-146-95v194" id="av"/><path fill="#fff" d="M24-231v-30h32v30H24zM-9 49c24 4 33-6 33-30v-209h32V24c2 40-23 58-65 49V49" id="aw"/><path fill="#fff" d="M141-36C126-15 110 5 73 4 37 3 15-17 15-53c-1-64 63-63 125-63 3-35-9-54-41-54-24 1-41 7-42 31l-33-3c5-37 33-52 76-52 45 0 72 20 72 64v82c-1 20 7 32 28 27v20c-31 9-61-2-59-35zM48-53c0 20 12 33 32 33 41-3 63-29 60-74-43 2-92-5-92 41" id="ax"/><path fill="#fff" d="M117-194c89-4 53 116 60 194h-32v-121c0-31-8-49-39-48C34-167 62-67 57 0H25l-1-190h30c1 10-1 24 2 32 11-22 29-35 61-36" id="ay"/><path fill="#fff" d="M177-190C167-65 218 103 67 71c-23-6-38-20-44-43l32-5c15 47 100 32 89-28v-30C133-14 115 1 83 1 29 1 15-40 15-95c0-56 16-97 71-98 29-1 48 16 59 35 1-10 0-23 2-32h30zM94-22c36 0 50-32 50-73 0-42-14-75-50-75-39 0-46 34-46 75s6 73 46 73" id="az"/><path fill="#fff" d="M100-194c62-1 85 37 85 99 1 63-27 99-86 99S16-35 15-95c0-66 28-99 85-99zM99-20c44 1 53-31 53-75 0-43-8-75-51-75s-53 32-53 75 10 74 51 75" id="aA"/><g id="p"><use transform="matrix(0.05,0,0,0.05,0,0)" xlink:href="#av"/><use transform="matrix(0.05,0,0,0.05,12.950000000000001,0)" xlink:href="#aw"/><use transform="matrix(0.05,0,0,0.05,16.900000000000002,0)" xlink:href="#ax"/><use transform="matrix(0.05,0,0,0.05,26.900000000000002,0)" xlink:href="#ay"/><use transform="matrix(0.05,0,0,0.05,36.900000000000006,0)" xlink:href="#az"/><use transform="matrix(0.05,0,0,0.05,46.900000000000006,0)" xlink:href="#aA"/></g><path fill="#fff" d="M205 0l-28-72H64L36 0H1l101-248h38L239 0h-34zm-38-99l-47-123c-12 45-31 82-46 123h93" id="aB"/><path fill="#fff" d="M115-194c55 1 70 41 70 98S169 2 115 4C84 4 66-9 55-30l1 105H24l-1-265h31l2 30c10-21 28-34 59-34zm-8 174c40 0 45-34 45-75s-6-73-45-74c-42 0-51 32-51 76 0 43 10 73 51 73" id="aC"/><path fill="#fff" d="M24 0v-261h32V0H24" id="aD"/><path fill="#fff" d="M24-231v-30h32v30H24zM24 0v-190h32V0H24" id="aE"/><path fill="#fff" d="M96-169c-40 0-48 33-48 73s9 75 48 75c24 0 41-14 43-38l32 2c-6 37-31 61-74 61-59 0-76-41-82-99-10-93 101-131 147-64 4 7 5 14 7 22l-32 3c-4-21-16-35-41-35" id="aF"/><path fill="#fff" d="M59-47c-2 24 18 29 38 22v24C64 9 27 4 27-40v-127H5v-23h24l9-43h21v43h35v23H59v120" id="aG"/><g id="q"><use transform="matrix(0.05,0,0,0.05,0,0)" xlink:href="#aB"/><use transform="matrix(0.05,0,0,0.05,12,0)" xlink:href="#aC"/><use transform="matrix(0.05,0,0,0.05,22,0)" xlink:href="#aC"/><use transform="matrix(0.05,0,0,0.05,32,0)" xlink:href="#aD"/><use transform="matrix(0.05,0,0,0.05,35.95,0)" xlink:href="#aE"/><use transform="matrix(0.05,0,0,0.05,39.900000000000006,0)" xlink:href="#aF"/><use transform="matrix(0.05,0,0,0.05,48.900000000000006,0)" xlink:href="#ax"/><use transform="matrix(0.05,0,0,0.05,58.900000000000006,0)" xlink:href="#aG"/><use transform="matrix(0.05,0,0,0.05,63.900000000000006,0)" xlink:href="#aE"/><use transform="matrix(0.05,0,0,0.05,67.85000000000001,0)" xlink:href="#aA"/><use transform="matrix(0.05,0,0,0.05,77.85000000000001,0)" xlink:href="#ay"/></g><path fill="#fff" d="M118-107v75H92v-75H18v-26h74v-75h26v75h74v26h-74" id="aH"/><use transform="matrix(0.05,0,0,0.05,0,0)" xlink:href="#aH" id="r"/><path fill="#fff" d="M212-179c-10-28-35-45-73-45-59 0-87 40-87 99 0 60 29 101 89 101 43 0 62-24 78-52l27 14C228-24 195 4 139 4 59 4 22-46 18-125c-6-104 99-153 187-111 19 9 31 26 39 46" id="aI"/><path fill="#fff" d="M84 4C-5 8 30-112 23-190h32v120c0 31 7 50 39 49 72-2 45-101 50-169h31l1 190h-30c-1-10 1-25-2-33-11 22-28 36-60 37" id="aJ"/><path fill="#fff" d="M135-143c-3-34-86-38-87 0 15 53 115 12 119 90S17 21 10-45l28-5c4 36 97 45 98 0-10-56-113-15-118-90-4-57 82-63 122-42 12 7 21 19 24 35" id="aK"/><path fill="#fff" d="M210-169c-67 3-38 105-44 169h-31v-121c0-29-5-50-35-48C34-165 62-65 56 0H25l-1-190h30c1 10-1 24 2 32 10-44 99-50 107 0 11-21 27-35 58-36 85-2 47 119 55 194h-31v-121c0-29-5-49-35-48" id="aL"/><g id="s"><use transform="matrix(0.05,0,0,0.05,0,0)" xlink:href="#aI"/><use transform="matrix(0.05,0,0,0.05,12.950000000000001,0)" xlink:href="#aJ"/><use transform="matrix(0.05,0,0,0.05,22.950000000000003,0)" xlink:href="#aK"/><use transform="matrix(0.05,0,0,0.05,31.950000000000003,0)" xlink:href="#aG"/><use transform="matrix(0.05,0,0,0.05,36.95,0)" xlink:href="#aA"/><use transform="matrix(0.05,0,0,0.05,46.95,0)" xlink:href="#aL"/></g><path fill="#fff" d="M85-194c31 0 48 13 60 33l-1-100h32l1 261h-30c-2-10 0-23-3-31C134-8 116 4 85 4 32 4 16-35 15-94c0-66 23-100 70-100zm9 24c-40 0-46 34-46 75 0 40 6 74 45 74 42 0 51-32 51-76 0-42-9-74-50-73" id="aM"/><path fill="#fff" d="M100-194c63 0 86 42 84 106H49c0 40 14 67 53 68 26 1 43-12 49-29l28 8c-11 28-37 45-77 45C44 4 14-33 15-96c1-61 26-98 85-98zm52 81c6-60-76-77-97-28-3 7-6 17-6 28h103" id="aN"/><g id="t"><use transform="matrix(0.05,0,0,0.05,0,0)" xlink:href="#aF"/><use transform="matrix(0.05,0,0,0.05,9,0)" xlink:href="#aA"/><use transform="matrix(0.05,0,0,0.05,19,0)" xlink:href="#aM"/><use transform="matrix(0.05,0,0,0.05,29,0)" xlink:href="#aN"/></g><path d="M140-251c81 0 123 46 123 126C263-46 219 4 140 4 59 4 17-45 17-125s42-126 123-126zm0 227c63 0 89-41 89-101s-29-99-89-99c-61 0-89 39-89 99S79-25 140-24" id="aO"/><g id="u"><use transform="matrix(0.05,0,0,0.05,0,0)" xlink:href="#aO"/><use transform="matrix(0.05,0,0,0.05,14,0)" xlink:href="#ae"/><use transform="matrix(0.05,0,0,0.05,24,0)" xlink:href="#am"/><use transform="matrix(0.05,0,0,0.05,27.950000000000003,0)" xlink:href="#au"/></g><g id="v"><use transform="matrix(0.05,0,0,0.05,0,0)" xlink:href="#an"/><use transform="matrix(0.05,0,0,0.05,9,0)" xlink:href="#ag"/><use transform="matrix(0.05,0,0,0.05,19,0)" xlink:href="#am"/></g><path d="M101-234c-31-9-42 10-38 44h38v23H63V0H32v-167H5v-23h27c-7-52 17-82 69-68v24" id="aP"/><g id="w"><use transform="matrix(0.05,0,0,0.05,0,0)" xlink:href="#aP"/><use transform="matrix(0.05,0,0,0.05,5,0)" xlink:href="#W"/><use transform="matrix(0.05,0,0,0.05,8.95,0)" xlink:href="#am"/><use transform="matrix(0.05,0,0,0.05,12.899999999999999,0)" xlink:href="#V"/></g><g id="x"><use transform="matrix(0.05,0,0,0.05,0,0)" xlink:href="#W"/><use transform="matrix(0.05,0,0,0.05,3.95,0)" xlink:href="#ac"/></g><path d="M85-194c31 0 48 13 60 33l-1-100h32l1 261h-30c-2-10 0-23-3-31C134-8 116 4 85 4 32 4 16-35 15-94c0-66 23-100 70-100zm9 24c-40 0-46 34-46 75 0 40 6 74 45 74 42 0 51-32 51-76 0-42-9-74-50-73" id="aQ"/><path d="M68-38c1 34 0 65-14 84H32c9-13 17-26 17-46H33v-38h35" id="aR"/><g id="y"><use transform="matrix(0.05,0,0,0.05,0,0)" xlink:href="#af"/><use transform="matrix(0.05,0,0,0.05,5,0)" xlink:href="#Z"/><use transform="matrix(0.05,0,0,0.05,10.95,0)" xlink:href="#ab"/><use transform="matrix(0.05,0,0,0.05,20.95,0)" xlink:href="#ae"/><use transform="matrix(0.05,0,0,0.05,30.950000000000003,0)" xlink:href="#ac"/><use transform="matrix(0.05,0,0,0.05,39.95,0)" xlink:href="#aP"/><use transform="matrix(0.05,0,0,0.05,44.95,0)" xlink:href="#V"/><use transform="matrix(0.05,0,0,0.05,54.95,0)" xlink:href="#Z"/><use transform="matrix(0.05,0,0,0.05,60.900000000000006,0)" xlink:href="#V"/><use transform="matrix(0.05,0,0,0.05,70.9,0)" xlink:href="#aQ"/><use transform="matrix(0.05,0,0,0.05,80.9,0)" xlink:href="#aR"/></g><g id="z"><use transform="matrix(0.05,0,0,0.05,0,0)" xlink:href="#ae"/><use transform="matrix(0.05,0,0,0.05,10,0)" xlink:href="#ag"/></g><path d="M108 0H70L1-190h34L89-25l56-165h34" id="aS"/><g id="A"><use transform="matrix(0.05,0,0,0.05,0,0)" xlink:href="#al"/><use transform="matrix(0.05,0,0,0.05,10,0)" xlink:href="#Z"/><use transform="matrix(0.05,0,0,0.05,15.949999999999998,0)" xlink:href="#W"/><use transform="matrix(0.05,0,0,0.05,19.9,0)" xlink:href="#aS"/><use transform="matrix(0.05,0,0,0.05,28.899999999999995,0)" xlink:href="#ab"/><use transform="matrix(0.05,0,0,0.05,38.9,0)" xlink:href="#af"/><use transform="matrix(0.05,0,0,0.05,43.9,0)" xlink:href="#V"/></g><g id="B"><use transform="matrix(0.05,0,0,0.05,0,0)" xlink:href="#aQ"/><use transform="matrix(0.05,0,0,0.05,10,0)" xlink:href="#ab"/><use transform="matrix(0.05,0,0,0.05,20,0)" xlink:href="#af"/><use transform="matrix(0.05,0,0,0.05,25,0)" xlink:href="#ab"/></g><g id="C"><use transform="matrix(0.05,0,0,0.05,0,0)" xlink:href="#aa"/><use transform="matrix(0.05,0,0,0.05,12,0)" xlink:href="#am"/><use transform="matrix(0.05,0,0,0.05,15.949999999999998,0)" xlink:href="#ab"/><use transform="matrix(0.05,0,0,0.05,25.950000000000003,0)" xlink:href="#W"/><use transform="matrix(0.05,0,0,0.05,29.899999999999995,0)" xlink:href="#ae"/></g><g id="D"><use transform="matrix(0.05,0,0,0.05,0,0)" xlink:href="#ah"/><use transform="matrix(0.05,0,0,0.05,12.950000000000001,0)" xlink:href="#ai"/><use transform="matrix(0.05,0,0,0.05,16.900000000000002,0)" xlink:href="#ab"/><use transform="matrix(0.05,0,0,0.05,26.900000000000002,0)" xlink:href="#ae"/><use transform="matrix(0.05,0,0,0.05,36.900000000000006,0)" xlink:href="#aj"/><use transform="matrix(0.05,0,0,0.05,46.900000000000006,0)" xlink:href="#ag"/></g><g id="E"><use transform="matrix(0.05,0,0,0.05,0,0)" xlink:href="#ab"/><use transform="matrix(0.05,0,0,0.05,10,0)" xlink:href="#al"/><use transform="matrix(0.05,0,0,0.05,20,0)" xlink:href="#al"/></g><g id="F"><use transform="matrix(0.05,0,0,0.05,0,0)" xlink:href="#an"/><use transform="matrix(0.05,0,0,0.05,9,0)" xlink:href="#ag"/><use transform="matrix(0.05,0,0,0.05,19,0)" xlink:href="#aQ"/><use transform="matrix(0.05,0,0,0.05,29,0)" xlink:href="#V"/></g><g id="G"><use transform="matrix(0.05,0,0,0.05,0,0)" xlink:href="#aj"/><use transform="matrix(0.05,0,0,0.05,10,0)" xlink:href="#V"/><use transform="matrix(0.05,0,0,0.05,20,0)" xlink:href="#ae"/><use transform="matrix(0.05,0,0,0.05,30,0)" xlink:href="#V"/><use transform="matrix(0.05,0,0,0.05,40,0)" xlink:href="#Z"/><use transform="matrix(0.05,0,0,0.05,45.95,0)" xlink:href="#ab"/><use transform="matrix(0.05,0,0,0.05,55.95,0)" xlink:href="#af"/><use transform="matrix(0.05,0,0,0.05,60.95,0)" xlink:href="#V"/><use transform="matrix(0.05,0,0,0.05,70.95,0)" xlink:href="#aQ"/><use transform="matrix(0.05,0,0,0.05,80.95,0)" xlink:href="#aR"/></g><g id="H"><use transform="matrix(0.05,0,0,0.05,0,0)" xlink:href="#ae"/><use transform="matrix(0.05,0,0,0.05,10,0)" xlink:href="#ag"/></g><g id="I"><use transform="matrix(0.05,0,0,0.05,0,0)" xlink:href="#ac"/><use transform="matrix(0.05,0,0,0.05,9,0)" xlink:href="#V"/><use transform="matrix(0.05,0,0,0.05,19,0)" xlink:href="#ae"/><use transform="matrix(0.05,0,0,0.05,29,0)" xlink:href="#ac"/><use transform="matrix(0.05,0,0,0.05,38,0)" xlink:href="#V"/><use transform="matrix(0.05,0,0,0.05,48,0)" xlink:href="#af"/><use transform="matrix(0.05,0,0,0.05,53,0)" xlink:href="#W"/><use transform="matrix(0.05,0,0,0.05,56.95,0)" xlink:href="#aS"/><use transform="matrix(0.05,0,0,0.05,65.95,0)" xlink:href="#V"/></g><g id="J"><use transform="matrix(0.05,0,0,0.05,0,0)" xlink:href="#W"/><use transform="matrix(0.05,0,0,0.05,3.95,0)" xlink:href="#ae"/><use transform="matrix(0.05,0,0,0.05,13.949999999999998,0)" xlink:href="#aP"/><use transform="matrix(0.05,0,0,0.05,18.95,0)" xlink:href="#ag"/></g><g id="L"><use transform="matrix(0.05,0,0,0.05,0,0)" xlink:href="#ak"/><use transform="matrix(0.05,0,0,0.05,12,0)" xlink:href="#am"/><use transform="matrix(0.05,0,0,0.05,15.949999999999998,0)" xlink:href="#am"/></g><path d="M106-169C34-169 62-67 57 0H25v-261h32l-1 103c12-21 28-36 61-36 89 0 53 116 60 194h-32v-121c2-32-8-49-39-48" id="aT"/><g id="M"><use transform="matrix(0.05,0,0,0.05,0,0)" xlink:href="#af"/><use transform="matrix(0.05,0,0,0.05,5,0)" xlink:href="#aT"/><use transform="matrix(0.05,0,0,0.05,15,0)" xlink:href="#V"/></g><path d="M84 4C-5 8 30-112 23-190h32v120c0 31 7 50 39 49 72-2 45-101 50-169h31l1 190h-30c-1-10 1-25-2-33-11 22-28 36-60 37" id="aU"/><g id="N"><use transform="matrix(0.05,0,0,0.05,0,0)" xlink:href="#an"/><use transform="matrix(0.05,0,0,0.05,9,0)" xlink:href="#aU"/><use transform="matrix(0.05,0,0,0.05,19,0)" xlink:href="#ac"/><use transform="matrix(0.05,0,0,0.05,28,0)" xlink:href="#af"/><use transform="matrix(0.05,0,0,0.05,33,0)" xlink:href="#ag"/><use transform="matrix(0.05,0,0,0.05,43,0)" xlink:href="#U"/></g><g id="O"><use transform="matrix(0.05,0,0,0.05,0,0)" xlink:href="#ae"/><use transform="matrix(0.05,0,0,0.05,10,0)" xlink:href="#V"/><use transform="matrix(0.05,0,0,0.05,20,0)" xlink:href="#aS"/><use transform="matrix(0.05,0,0,0.05,29,0)" xlink:href="#V"/><use transform="matrix(0.05,0,0,0.05,39,0)" xlink:href="#Z"/></g><g id="P"><use transform="matrix(0.05,0,0,0.05,0,0)" xlink:href="#ac"/><use transform="matrix(0.05,0,0,0.05,9,0)" xlink:href="#V"/><use transform="matrix(0.05,0,0,0.05,19,0)" xlink:href="#ae"/><use transform="matrix(0.05,0,0,0.05,29,0)" xlink:href="#af"/></g><g id="Q"><use transform="matrix(0.05,0,0,0.05,0,0)" xlink:href="#af"/><use transform="matrix(0.05,0,0,0.05,5,0)" xlink:href="#ag"/></g><g id="R"><use transform="matrix(0.05,0,0,0.05,0,0)" xlink:href="#aj"/><use transform="matrix(0.05,0,0,0.05,10,0)" xlink:href="#V"/><use transform="matrix(0.05,0,0,0.05,20,0)" xlink:href="#ae"/><use transform="matrix(0.05,0,0,0.05,30,0)" xlink:href="#V"/><use transform="matrix(0.05,0,0,0.05,40,0)" xlink:href="#Z"/><use transform="matrix(0.05,0,0,0.05,45.95,0)" xlink:href="#ab"/><use transform="matrix(0.05,0,0,0.05,55.95,0)" xlink:href="#af"/><use transform="matrix(0.05,0,0,0.05,60.95,0)" xlink:href="#ag"/><use transform="matrix(0.05,0,0,0.05,70.95,0)" xlink:href="#Z"/></g><g id="S"><use transform="matrix(0.05,0,0,0.05,0,0)" xlink:href="#ak"/><use transform="matrix(0.05,0,0,0.05,12,0)" xlink:href="#aa"/><use transform="matrix(0.05,0,0,0.05,24,0)" xlink:href="#aq"/></g></defs></g></svg>